<svg xmlns="http://www.w3.org/2000/svg" style="display: none;">
  <!-- Sprite de iconos - Redes Sociales incluidas -->
  
  <!-- Iconos Generales -->
  <symbol id="icono-home" viewBox="0 0 24 24">
    <path d="M12 2L2 12h3v8h6v-6h2v6h6v-8h3L12 2z" fill="currentColor"/>
  </symbol>

  <symbol id="icono-usuario" viewBox="0 0 24 24">
    <path d="M12 12c2.21 0 4-1.79 4-4s-1.79-4-4-4-4 1.79-4 4 1.79 4 4 4zm0 2c-2.67 0-8 1.34-8 4v2h16v-2c0-2.66-5.33-4-8-4z" fill="currentColor"/>
  </symbol>

  <symbol id="icono-ajustes" viewBox="0 0 24 24">
    <path d="M19.14 12.94c.04-.3.06-.61.06-.94 0-.32-.02-.64-.07-.94l2.03-1.58c.18-.14.23-.41.12-.61l-1.92-3.32c-.12-.22-.37-.29-.59-.22l-2.39.96c-.5-.38-1.03-.7-1.62-.94l-.36-2.54c-.04-.24-.24-.41-.48-.41h-3.84c-.24 0-.43.17-.47.41l-.36 2.54c-.59.24-1.13.57-1.62.94l-2.39-.96c-.22-.08-.47 0-.59.22L2.74 8.87c-.12.21-.08.47.12.61l2.03 1.58c-.05.3-.09.63-.09.94s.02.64.07.94l-2.03 1.58c-.18.14-.23.41-.12.61l1.92 3.32c.12.22.37.29.59.22l2.39-.96c.5.38 1.03.7 1.62.94l.36 2.54c.05.24.24.41.48.41h3.84c.24 0 .44-.17.47-.41l.36-2.54c.59-.24 1.13-.56 1.62-.94l2.39.96c.22.08.47 0 .59-.22l1.92-3.32c.12-.22.07-.47-.12-.61l-2.01-1.58zM12 15.6c-1.98 0-3.6-1.62-3.6-3.6s1.62-3.6 3.6-3.6 3.6 1.62 3.6 3.6-1.62 3.6-3.6 3.6z" fill="currentColor"/>
  </symbol>

  <symbol id="icono-cerrar" viewBox="0 0 24 24">
    <path d="M19 6.41L17.59 5 12 10.59 6.41 5 5 6.41 10.59 12 5 17.59 6.41 19 12 13.41 17.59 19 19 17.59 13.41 12 19 6.41z" fill="currentColor"/>
  </symbol>

  <!-- Redes Sociales -->
  <symbol id="icono-facebook" viewBox="0 0 24 24">
    <path d="M22 12c0-5.52-4.48-10-10-10S2 6.48 2 12c0 4.84 3.44 8.87 8 9.8V15H8v-3h2V9.5C10 7.57 11.57 6 13.5 6H16v3h-2c-.55 0-1 .45-1 1v2h3v3h-3v6.95c5.05-.5 9-4.76 9-9.95z" fill="currentColor"/>
  </symbol>

  <symbol id="icono-twitter" viewBox="0 0 24 24">
    <path d="M22.46 6c-.77.35-1.6.58-2.46.69.88-.53 1.56-1.37 1.88-2.38-.83.5-1.75.85-2.72 1.05C18.37 4.5 17.26 4 16 4c-2.35 0-4.27 1.92-4.27 4.29 0 .34.04.67.11.98C8.28 9.09 5.11 7.38 3 4.79c-.37.63-.58 1.37-.58 2.15 0 1.49.75 2.81 1.91 3.56-.71 0-1.37-.2-1.95-.5v.03c0 2.08 1.48 3.82 3.44 4.21a4.22 4.22 0 0 1-1.93.07 4.28 4.28 0 0 0 4 2.98 8.521 8.521 0 0 1-5.33 1.84c-.34 0-.68-.02-1.02-.06C3.44 20.29 5.7 21 8.12 21 16 21 20.33 14.46 20.33 8.79c0-.19 0-.37-.01-.56.84-.6 1.56-1.36 2.14-2.23z" fill="currentColor"/>
  </symbol>

  <symbol id="icono-instagram" viewBox="0 0 24 24">
    <path d="M12 2.16c3.2 0 3.58 0 4.85.07 1.17.06 1.8.27 2.22.46.54.23 1.02.54 1.47 1 .46.45.77.93 1 1.47.19.42.4 1.05.46 2.22.07 1.27.07 1.65.07 4.85s0 3.58-.07 4.85c-.06 1.17-.27 1.8-.46 2.22-.23.54-.54 1.02-1 1.47-.45.46-.93.77-1.47 1-.42.19-1.05.4-2.22.46-1.27.07-1.65.07-4.85.07s-3.58 0-4.85-.07c-1.17-.06-1.8-.27-2.22-.46-.54-.23-1.02-.54-1.47-1-.46-.45-.77-.93-1-1.47-.19-.42-.4-1.05-.46-2.22-.07-1.27-.07-1.65-.07-4.85s0-3.58.07-4.85c.06-1.17.27-1.8.46-2.22.23-.54.54-1.02 1-1.47.45-.46.93-.77 1.47-1 .42-.19 1.05-.4 2.22-.46 1.27-.07 1.65-.07 4.85-.07zm0-2.16c-3.27 0-3.69.01-4.98.07-1.28.06-2.16.28-2.93.6-.79.33-1.46.77-2.09 1.4-.63.63-1.07 1.3-1.4 2.09-.32.77-.54 1.65-.6 2.93-.06 1.29-.07 1.71-.07 4.98s.01 3.69.07 4.98c.06 1.28.28 2.16.6 2.93.33.79.77 1.46 1.4 2.09.63.63 1.3 1.07 2.09 1.4.77.32 1.65.54 2.93.6 1.29.06 1.71.07 4.98.07s3.69-.01 4.98-.07c1.28-.06 2.16-.28 2.93-.6.79-.33 1.46-.77 2.09-1.4.63-.63 1.07-1.3 1.4-2.09.32-.77.54-1.65.6-2.93.06-1.29.07-1.71.07-4.98s-.01-3.69-.07-4.98c-.06-1.28-.28-2.16-.6-2.93-.33-.79-.77-1.46-1.4-2.09-.63-.63-1.3-1.07-2.09-1.4-.77-.32-1.65-.54-2.93-.6-1.29-.06-1.71-.07-4.98-.07zm0 5.66c-2.78 0-5.03 2.25-5.03 5.03s2.25 5.03 5.03 5.03 5.03-2.25 5.03-5.03-2.25-5.03-5.03-5.03zm0 8.31c-1.81 0-3.28-1.47-3.28-3.28s1.47-3.28 3.28-3.28 3.28 1.47 3.28 3.28-1.47 3.28-3.28 3.28zm6.34-8.44c0 .65-.53 1.18-1.18 1.18s-1.18-.53-1.18-1.18.53-1.18 1.18-1.18 1.18.53 1.18 1.18z" fill="currentColor"/>
  </symbol>

  <symbol id="icono-linkedin" viewBox="0 0 24 24">
    <path d="M19 3a2 2 0 0 1 2 2v14a2 2 0 0 1-2 2H5a2 2 0 0 1-2-2V5a2 2 0 0 1 2-2h14m-.5 15.5v-5.3a3.26 3.26 0 0 0-3.26-3.26c-.85 0-1.84.52-2.32 1.3v-1.11h-2.79v8.37h2.79v-4.93c0-.77.62-1.4 1.39-1.4a1.4 1.4 0 0 1 1.4 1.4v4.93h2.79M6.88 8.56a1.68 1.68 0 0 0 1.68-1.68c0-.93-.75-1.69-1.68-1.69a1.69 1.69 0 0 0-1.69 1.69c0 .93.76 1.68 1.69 1.68m1.39 9.94v-8.37H5.5v8.37h2.77z" fill="currentColor"/>
  </symbol>

  <symbol id="icono-youtube" viewBox="0 0 24 24">
    <path d="M10 15l5.19-3L10 9v6m11.56-7.83c.13.47.22 1.1.28 1.87.05.77.09 1.6.09 2.46v.27c0 .86-.04 1.69-.09 2.48s-.15 1.38-.28 1.85-.41.85-.78 1.21c-.36.36-.86.62-1.5.79-.62.16-1.43.24-2.43.24H7.44c-1 0-1.81-.08-2.43-.24-.64-.17-1.14-.43-1.5-.79-.36-.36-.64-.74-.78-1.21-.14-.47-.23-1.1-.28-1.87-.06-.79-.1-1.62-.1-2.48v-.27c0-.86.04-1.69.1-2.48.05-.77.14-1.4.28-1.87.14-.47.42-.85.78-1.21.36-.36.86-.62 1.5-.79.62-.16 1.43-.24 2.43-.24h9.12c1 0 1.81.08 2.43.24.64.17 1.14.43 1.5.79.36.36.64.74.78 1.21z" fill="currentColor"/>
  </symbol>

  <symbol id="icono-tiktok" viewBox="0 0 24 24">
    <path d="M16.6 5.82s.51.5 1.18.5c.67 0 1.22-.54 1.22-1.22v-3.1h1.9c.67 0 1.22.55 1.22 1.22 0 2.93-1.66 4.64-4.3 4.8v3.04c3.65.24 6.51-2.85 6.51-6.51h-3.04c0 1.91-1.55 3.46-3.46 3.46V5.82zm-3.46 4.3v1.72c-1.91 0-3.46-1.55-3.46-3.46H5.82c0 3.66 2.97 6.63 6.63 6.63v3.04c-2.93 0-5.46-1.92-6.3-4.64-1.2-3.48.67-7.32 4.3-7.98v3.04c-1.2.36-2.12 1.48-2.12 2.79 0 1.55 1.26 2.81 2.81 2.81 1.55 0 2.81-1.26 2.81-2.81V5.82h3.04c-.24 1.55-1.55 2.79-3.17 2.79-1.62 0-2.93-1.24-3.17-2.79H13.1c.24 1.55 1.55 2.79 3.17 2.79 1.62 0 2.93-1.24 3.17-2.79h3.04v3.04c0 3.66-2.97 6.63-6.63 6.63-3.66 0-6.63-2.97-6.63-6.63s2.97-6.63 6.63-6.63V2.5H9.76v7.62c0 1.91 1.55 3.46 3.46 3.46z" fill="currentColor"/>
  </symbol>
</svg>